<svg width="553" height="368" viewBox="0 0 553 368" fill="none" xmlns="http://www.w3.org/2000/svg">
<g clip-path="url(#clip0_2165_247)">
<path d="M213.78 33.2385H146.695C144.394 33.2385 142.521 31.366 142.521 29.0645C142.521 26.7631 144.394 24.8906 146.695 24.8906H213.78C216.082 24.8906 217.954 26.7631 217.954 29.0645C217.954 31.366 216.082 33.2385 213.78 33.2385Z" fill="#E6E7E8"/>
<path d="M266.134 47.3674H146.695C144.394 47.3674 142.521 45.4949 142.521 43.1935C142.521 40.892 144.394 39.0195 146.695 39.0195H266.134C268.435 39.0195 270.308 40.892 270.308 43.1935C270.308 45.4949 268.435 47.3674 266.134 47.3674Z" fill="#E6E7E8"/>
<path d="M266.134 61.3674H146.695C144.394 61.3674 142.521 59.4949 142.521 57.1935C142.521 54.892 144.394 53.0195 146.695 53.0195H266.134C268.435 53.0195 270.308 54.892 270.308 57.1935C270.308 59.4949 268.435 61.3674 266.134 61.3674Z" fill="#E6E7E8"/>
<path d="M278.785 134.02V132.02C255.699 132.02 235.54 113.162 230.18 86.8938L238.878 89.1315C234.671 85.1456 230.421 78.473 227.785 73.0195C226.228 78.874 223.319 86.2312 219.943 90.942L228.173 87.0435C233.646 114.372 254.672 134.02 278.785 134.02Z" fill="#3F3D56"/>
<path d="M270.053 57.4805C270.053 59.686 268.258 61.4805 266.053 61.4805H214.053C211.847 61.4805 210.053 59.686 210.053 57.4805C210.053 55.2749 211.847 53.4805 214.053 53.4805H266.053C268.258 53.4805 270.053 55.2749 270.053 57.4805Z" fill="#F85A40"/>
<path d="M35.9039 280.296C35.1123 277.539 33.7568 275.188 32.1429 273.511L26.2792 246.781L13.498 249.912L20.8223 276.69C20.3406 278.956 20.437 281.66 21.2286 284.417C23.037 290.714 27.7882 294.896 31.8407 293.758C35.8932 292.62 37.7123 286.593 35.9039 280.296Z" fill="#FFB6B6"/>
<path d="M34.1357 104.956C34.1357 104.956 20.3307 104.479 12.3307 113.479C3.16516 124.675 -3.09991 168.546 1.6033 171.5L14.346 261.986L32.5168 259.489L27.8533 150.92L34.1357 104.956Z" fill="#F85A40"/>
<path d="M127.33 257.48L124.023 367.918H76.5229L74.6029 325.348L66.1629 367.918H15.2529L21.6029 294.738L28.1629 279.348L32.6029 268.918L127.33 257.48Z" fill="#2F2E41"/>
<path d="M89.6036 86.918L56.6036 84.918L45.6036 98.918C36.1034 100.952 27.5225 103.578 21.6036 107.918C23.0197 149.844 19.909 204.36 32.6037 214.918L21.3311 294.481C21.3311 294.481 25.877 290.586 33.4708 291.961C36.0942 292.436 39.2611 298.346 42.4847 298.704C67.2544 301.456 107.422 298.626 127.331 257.481L119.604 197.918L121.604 110.918C115.351 105.976 107.578 102.764 98.6036 100.918L89.6036 86.918Z" fill="#F85A40"/>
<path d="M153.133 62.5783C153.491 66.0452 153.036 69.3056 151.989 71.9197L157.486 104.732L141.796 106.891L137.909 73.3737C136.35 71.0288 135.239 67.9302 134.881 64.4632C134.063 56.543 137.485 49.7004 142.525 49.1799C147.566 48.6594 152.315 54.658 153.133 62.5783Z" fill="#FFB6B6"/>
<path d="M100.97 113.424C99.3274 115.848 99.785 118.572 99.3928 121.846C97.7277 135.742 124.357 176.805 142.783 181.533C145.201 182.154 146.578 184.762 149.019 185.287C156.248 186.84 162.98 181.102 162.589 173.718L157.584 79.0098L136.557 86.1818L137.903 135.352C137.769 125.166 128.415 114.794 121.33 110.48C121.33 110.48 106.979 104.558 100.97 113.424Z" fill="#F85A40"/>
<path d="M76.5277 82.3288C92.5814 82.3288 105.595 69.3148 105.595 53.2611C105.595 37.2074 92.5814 24.1934 76.5277 24.1934C60.474 24.1934 47.46 37.2074 47.46 53.2611C47.46 69.3148 60.474 82.3288 76.5277 82.3288Z" fill="#FFB6B6"/>
<path d="M103.603 31.9172C103.353 31.9773 107.429 28.004 107.603 27.9172C111.603 25.9172 107.493 45.4672 104.603 44.9172C97.4931 43.5672 94.4232 40.8872 91.6631 47.5772C90.8931 49.4372 90.4131 51.5372 88.9131 52.8672C86.8531 54.6772 83.4332 54.5272 81.7532 56.6872C80.4031 58.4272 80.7931 60.9872 81.7931 62.9472C82.7931 64.9172 84.3132 66.5872 85.2231 68.5972C86.2432 70.8572 81.8931 78.0472 80.2332 82.0872V82.0972L80.2233 82.1209C79.7822 83.1805 78.734 80.1279 77.6274 79.8232C76.3031 79.4586 74.3523 82.5854 72.2431 82.0172C72.2331 82.0172 72.2231 82.0072 72.2131 82.0072C70.2031 81.4472 67.9631 80.8472 65.7431 80.2472H65.7331C59.4831 78.5472 57.9031 80.9872 57.6031 80.9172L53.7231 76.8572C52.3916 75.8877 52.5421 72.7578 51.6031 71.9172C50.8353 71.2297 48.9209 72.8183 48.3568 72.1575C45.5904 68.9175 44.9539 65.6763 43.3231 59.2772C41.8331 53.4272 38.7431 35.9172 45.0931 35.1272C51.0831 34.3772 46.7031 26.0372 52.7331 26.3472C52.3731 24.8272 53.0431 23.1972 54.1332 22.0772C55.2131 20.9472 56.6531 20.2472 58.1031 19.6472C65.2531 16.7272 64.0631 14.2173 71.6031 15.9172C72.3531 14.8672 81.9705 12.1299 83.3305 12.4799C83.4305 12.4999 81.2331 16.7672 86.6031 15.9172C86.4031 17.1472 89.3306 14.4799 89.6031 18.9172C95.3306 15.4799 98.4131 23.7072 98.6031 24.9172C98.8531 26.4272 96.5731 25.6572 98.0931 25.8872C98.9931 26.0272 100.533 27.8572 100.383 28.7672C101.033 27.8872 101.683 27.0172 102.343 26.1372C102.463 26.1472 102.573 26.1672 102.693 26.1872C105.733 26.7672 102.248 36.7051 102.373 33.6072C102.603 27.9172 106.633 31.2472 103.603 31.9172Z" fill="#2F2E41"/>
<path d="M474.37 25.9581C473.296 34.7854 472.123 43.6006 470.85 52.4015C470.333 55.976 469.787 59.596 468.349 62.909C467.367 65.1704 465.992 67.2356 464.625 69.2869C463.009 71.711 461.367 74.1659 459.172 76.0821C456.978 77.9982 454.127 79.3437 451.223 79.1185C458.929 73.931 464.108 65.1569 464.927 55.9033C465.312 51.5535 464.784 47.1811 464.682 42.8156C464.581 38.45 464.947 33.9325 466.961 30.058C468.975 26.1836 472.954 23.0822 477.319 23.1923L474.37 25.9581Z" fill="#2F2E41"/>
<path d="M396.268 214.231C389.998 219.316 382.291 220.204 379.055 216.214C375.818 212.224 378.278 204.866 384.548 199.78C387.293 197.554 390.313 196.132 393.113 195.572L419.953 174.355L429.641 187.163L402.154 206.719C401.028 209.343 399.013 212.004 396.268 214.231Z" fill="#A0616A"/>
<path d="M401.338 185.427L441.331 147.479L445.331 144.479C445.331 144.479 468.289 122.113 474.233 121.6C476.751 121.384 479.269 122.012 481.39 123.39C484.817 125.612 486.592 129.269 486.592 132.956C486.592 136.037 485.351 139.132 482.811 141.411L446.198 174.281L430.622 188.262L411.251 205.657L409.281 201.645L402.622 188.053L401.338 185.427Z" fill="#F85A40"/>
<path d="M486.852 159.746L446.809 172.011C453.513 173.899 456.32 214.75 450.081 216.019C450.081 216.019 516.445 220.739 512.824 216.019C508.41 210.265 514.33 172.027 517.153 172.011L486.852 159.746Z" fill="#A0616A"/>
<path d="M540.137 367.921L536.637 325.681C536.637 310.571 535.657 296.921 534.087 284.751C527.797 235.901 512.027 210.861 512.027 210.861H453.027C452.947 210.951 452.867 211.021 452.787 211.111L452.777 211.121C438.857 225.751 431.617 262.541 428.397 284.751C426.867 295.321 426.247 302.591 426.247 302.591L420.477 353.871L424.647 367.921H458.977L458.437 364.911L480.527 284.751L480.797 283.771L481.037 284.751L501.517 367.921L540.137 367.921Z" fill="#2F2E41"/>
<path d="M454.236 135.38L466.703 110.213L477.208 91.9289L485.703 83.2715H508.952L511.117 91.9289L524.103 99.1434L528.696 135.216L512.331 213.481C492.852 197.609 452.703 193.213 452.703 193.213L446.198 174.282L441.898 151.477L441.379 148.75L454.236 135.38Z" fill="#F85A40"/>
<path d="M452.74 180.904C444.67 180.675 438.245 176.326 438.391 171.191C438.537 166.055 445.197 162.077 453.268 162.306C456.8 162.407 460.018 163.296 462.506 164.696L496.691 166.095L495.693 182.123L462.099 179.043C459.535 180.299 456.273 181.005 452.74 180.904Z" fill="#A0616A"/>
<path d="M496.457 126.197L528.703 158.211L472.535 163.963L459.482 182.323L537.771 184.919C544.834 187.435 552.358 182.553 552.94 175.078C553.136 172.553 537.052 108.505 527.316 102.559C515.904 95.5904 496.457 126.197 496.457 126.197Z" fill="#F85A40"/>
<path d="M518.855 51.8575C519.09 37.3161 507.492 25.3379 492.95 25.1034C478.409 24.8689 466.431 36.467 466.196 51.0084C465.962 65.5498 477.56 77.528 492.101 77.7624C506.642 77.9969 518.621 66.3989 518.855 51.8575Z" fill="#A0616A"/>
<path d="M550.332 133.48C549.672 135.98 544.532 137.27 543.332 140.48C539.512 142.66 541.582 124.85 540.042 123.68C538.852 122.79 538.532 124.94 538.262 123.09C537.242 116.15 530.572 117.7 525.632 116.58C525.072 115.49 524.642 114.43 524.362 113.4C523.862 111.54 521.582 110.89 520.232 112.26C519.622 111.72 519.182 109.81 518.752 107.9C518.442 106.51 518.132 105.12 517.772 104.24L514.332 96.4799L515.442 102.26C513.192 101.45 510.922 102.29 509.612 99.5098C507.932 95.9398 507.262 91.7598 508.482 88.0098C509.592 84.6099 511.462 77.7999 513.572 72.1599C511.182 73.8898 508.312 75.1499 504.982 75.7799C506.162 73.5399 507.362 71.2598 507.862 68.7699C508.352 66.2799 508.052 63.5098 506.472 61.5299C505.172 59.8999 503.252 60.3098 501.632 58.9998C500.372 57.9799 499.282 55.3699 498.522 53.9398C501.762 64.7099 504.212 76.1499 500.092 86.4299C497.242 93.5499 491.242 99.3399 484.042 101.97C487.872 99.2299 491.612 96.3098 494.482 92.5899C497.552 88.5999 499.552 83.5598 498.942 78.5598C497.982 70.7099 483.422 45.8798 481.632 40.9998C482.612 45.7699 482.232 49.4899 479.652 51.5399C478.982 44.6199 471.442 45.2498 467.332 42.4799C467.332 42.4799 464.152 24.5098 471.612 24.3999C475.212 24.3499 478.982 15.8898 482.252 14.3798C487.472 11.9699 490.672 13.6099 496.462 13.7899C502.242 13.9598 507.792 16.4498 511.322 21.0198C513.172 23.4099 513.852 21.5098 516.632 22.9998C519.272 24.4099 521.052 23.0999 524.042 23.1898C530.032 23.3499 535.842 26.5499 539.202 31.4998C542.562 36.4598 544.632 35.9998 543.302 43.6699C543.282 43.7598 543.282 43.9398 543.302 44.2098C544.032 56.2899 542.162 68.3998 537.372 79.5198C535.892 82.9398 543.131 86.4697 543.121 90.7397C543.111 95.6997 535.122 100.22 535.862 102.34C537.982 112.55 549.892 110.28 547.082 127.37C546.852 128.76 550.772 131.81 550.332 133.48Z" fill="#2F2E41"/>
<path d="M477.379 102.211C477.599 102.141 477.819 102.061 478.039 101.971C477.759 102.171 477.489 102.361 477.209 102.561L477.379 102.211Z" fill="#014D44"/>
<path d="M514.47 17.9605C511.605 18.3862 508.695 13.6336 510.322 7.04297C513.866 12.4625 515.678 18.5636 515.963 25.2651L514.053 25.8569L514.47 17.9605Z" fill="#F85A40"/>
<path d="M529.106 11.8086C527.151 18.7352 517.224 23.3709 515.471 20.9604L515.27 25.091L514.043 23.5122C517.603 18.2177 522.456 14.1563 529.106 11.8086Z" fill="#F85A40"/>
<path d="M311.121 198.594C311.121 196.292 312.994 194.42 315.295 194.42H382.38C384.681 194.42 386.554 196.292 386.554 198.594C386.554 200.895 384.681 202.768 382.38 202.768H315.295C312.994 202.768 311.121 200.895 311.121 198.594Z" fill="#E6E7E8"/>
<path d="M311.121 226.594C311.121 224.292 312.994 222.42 315.295 222.42H382.38C384.681 222.42 386.554 224.292 386.554 226.594C386.554 228.895 384.681 230.768 382.38 230.768H315.295C312.994 230.768 311.121 228.895 311.121 226.594Z" fill="#E6E7E8"/>
<path d="M262.941 216.895C260.64 216.895 258.768 215.022 258.768 212.721C258.768 210.419 260.64 208.547 262.941 208.547H382.38C384.681 208.547 386.554 210.419 386.554 212.721C386.554 215.022 384.681 216.895 382.38 216.895H262.941Z" fill="#E6E7E8"/>
<path d="M254.062 176.947L245.832 173.048C249.208 177.759 252.116 185.116 253.673 190.971C256.31 185.517 260.56 178.845 264.767 174.859L256.069 177.096C261.429 150.828 281.588 131.971 304.673 131.971V129.971C280.56 129.971 259.534 149.618 254.062 176.947Z" fill="#3F3D56"/>
<path d="M291.941 216.971H239.941C237.736 216.971 235.941 215.176 235.941 212.971C235.941 210.765 237.736 208.971 239.941 208.971H291.941C294.147 208.971 295.941 210.765 295.941 212.971C295.941 215.176 294.147 216.971 291.941 216.971Z" fill="#F85A40"/>
<path d="M307.129 135.166C308.515 126.631 302.718 118.588 294.182 117.203C285.647 115.818 277.604 121.615 276.219 130.15C274.834 138.686 280.63 146.728 289.166 148.113C297.702 149.499 305.744 143.702 307.129 135.166Z" fill="#3F3D56"/>
<path d="M206.673 19.3147C212.007 19.3147 216.33 14.991 216.33 9.65737C216.33 4.32375 212.007 0 206.673 0C201.339 0 197.016 4.32375 197.016 9.65737C197.016 14.991 201.339 19.3147 206.673 19.3147Z" fill="#E6E7E8"/>
<path d="M319.673 186.315C325.007 186.315 329.33 181.991 329.33 176.657C329.33 171.324 325.007 167 319.673 167C314.339 167 310.016 171.324 310.016 176.657C310.016 181.991 314.339 186.315 319.673 186.315Z" fill="#E6E7E8"/>
</g>
<defs>
<clipPath id="clip0_2165_247">
<rect width="552.941" height="367.921" fill="white"/>
</clipPath>
</defs>
</svg>
